# xmcd CD database file
#
# Track frame offsets:
#	150
#	18618
#	35051
#	50536
#	65247
#	81619
#	96332
#	110083
#	124579
#	140751
#	157044
#	174595
#	192831
#	207870
#	226262
#	243762
#	259663
#	274178
#	286349
#	310170
#
# Disc length: 4307 seconds
#
# Revision: 0
# Processed by: cddbd v1.5.2PL0 Copyright (c) Steve Scherf et al.
# Submitted via: CDex 1.70beta2
#
DISCID=3110d114
DTITLE=Raindance - The best of raindance
DYEAR=1999
DGENRE=New Age
TTITLE0=Brother Louie '98 - Indian language
TTITLE1=Mysteriuos times - Karaki
TTITLE2=God is a DJ  - Petic justice
TTITLE3=Carnaval de Paris - Hydro 1
TTITLE4=Alane - Kamar-Oun
TTITLE5=Sunchyme - Hydro 1
TTITLE6=Heyo - Fragrance
TTITLE7=Indian moods - Akhawi
TTITLE8=Water, 4 circles of life - World of the rain
TTITLE9=Ameno - Ypsillon
TTITLE10=Foolish games - Pearl
TTITLE11=Adiemus - Moneille
TTITLE12=Era - Omega
TTITLE13=Return tot innocence - Ganymede
TTITLE14=Sweet luuleby - Hidden wood
TTITLE15=Silmarilla - Majo-Ree
TTITLE16=Nocturne - The gnome
TTITLE17=Theme from Harry's game - Praise
TTITLE18=Frozen - Virgo
TTITLE19=Rose - Siempre
EXTD=YEAR: 1999
EXTT0=
EXTT1=
EXTT2=
EXTT3=
EXTT4=
EXTT5=
EXTT6=
EXTT7=
EXTT8=
EXTT9=
EXTT10=
EXTT11=
EXTT12=
EXTT13=
EXTT14=
EXTT15=
EXTT16=
EXTT17=
EXTT18=
EXTT19=
PLAYORDER=
